<?xml version="1.0" encoding="UTF-8" standalone="no"?>
<svg
   xmlns:dc="http://purl.org/dc/elements/1.1/"
   xmlns:cc="http://creativecommons.org/ns#"
   xmlns:rdf="http://www.w3.org/1999/02/22-rdf-syntax-ns#"
   xmlns:svg="http://www.w3.org/2000/svg"
   xmlns="http://www.w3.org/2000/svg"
   xmlns:sodipodi="http://sodipodi.sourceforge.net/DTD/sodipodi-0.dtd"
   xmlns:inkscape="http://www.inkscape.org/namespaces/inkscape"
   viewBox="0 -20 1186.7734 190"
   height="190"
   width="1186.7734"
   version="1.1"
   id="svg12"
   sodipodi:docname="logo_path.svg"
   inkscape:version="0.92.1 r">
  <metadata
     id="metadata18">
    <rdf:RDF>
      <cc:Work
         rdf:about="">
        <dc:format>image/svg+xml</dc:format>
        <dc:type
           rdf:resource="http://purl.org/dc/dcmitype/StillImage" />
        <dc:title></dc:title>
      </cc:Work>
    </rdf:RDF>
  </metadata>
  <defs
     id="defs16" />
  <sodipodi:namedview
     pagecolor="#ffffff"
     bordercolor="#666666"
     borderopacity="1"
     objecttolerance="10"
     gridtolerance="10"
     guidetolerance="10"
     inkscape:pageopacity="0"
     inkscape:pageshadow="2"
     inkscape:window-width="1920"
     inkscape:window-height="1147"
     id="namedview14"
     showgrid="false"
     inkscape:zoom="1.031405"
     inkscape:cx="560.70725"
     inkscape:cy="47.769654"
     inkscape:window-x="0"
     inkscape:window-y="0"
     inkscape:window-maximized="1"
     inkscape:current-layer="svg12"
     showguides="true"
     inkscape:guide-bbox="true"
     fit-margin-top="0"
     fit-margin-left="0"
     fit-margin-right="0"
     fit-margin-bottom="0" />
  <path
     style="color:#000000;font-style:normal;font-variant:normal;font-weight:normal;font-stretch:normal;font-size:medium;line-height:normal;font-family:sans-serif;font-variant-ligatures:normal;font-variant-position:normal;font-variant-caps:normal;font-variant-numeric:normal;font-variant-alternates:normal;font-feature-settings:normal;text-indent:0;text-align:start;text-decoration:none;text-decoration-line:none;text-decoration-style:solid;text-decoration-color:#000000;letter-spacing:normal;word-spacing:normal;text-transform:none;writing-mode:lr-tb;direction:ltr;text-orientation:mixed;dominant-baseline:auto;baseline-shift:baseline;text-anchor:start;white-space:normal;shape-padding:0;clip-rule:nonzero;display:inline;overflow:visible;visibility:visible;opacity:1;isolation:auto;mix-blend-mode:normal;color-interpolation:sRGB;color-interpolation-filters:linearRGB;solid-color:#000000;solid-opacity:1;vector-effect:none;fill:#ffffff;fill-opacity:1;fill-rule:nonzero;stroke:none;stroke-width:30;stroke-linecap:butt;stroke-linejoin:miter;stroke-miterlimit:4;stroke-dasharray:none;stroke-dashoffset:0;stroke-opacity:1;color-rendering:auto;image-rendering:auto;shape-rendering:auto;text-rendering:auto;enable-background:accumulate"
     d="M 45,0 C 20.32485,0 0,20.324871 0,45 0,69.675129 20.32485,90 45,90 h 10 c 8.461957,0 15,6.538045 15,15 0,8.46195 -6.538043,15 -15,15 H 0 v 30 h 55 c 24.67515,0 45,-20.32487 45,-45 C 100,80.324871 79.67515,60 55,60 H 45 C 36.538043,60 30,53.461955 30,45 30,36.538045 36.538043,30 45,30 h 55 V 0 Z"
     id="path2"
     inkscape:connector-curvature="0" />
  <path
     style="color:#000000;font-style:normal;font-variant:normal;font-weight:normal;font-stretch:normal;font-size:medium;line-height:normal;font-family:sans-serif;font-variant-ligatures:normal;font-variant-position:normal;font-variant-caps:normal;font-variant-numeric:normal;font-variant-alternates:normal;font-feature-settings:normal;text-indent:0;text-align:start;text-decoration:none;text-decoration-line:none;text-decoration-style:solid;text-decoration-color:#000000;letter-spacing:normal;word-spacing:normal;text-transform:none;writing-mode:lr-tb;direction:ltr;text-orientation:mixed;dominant-baseline:auto;baseline-shift:baseline;text-anchor:start;white-space:normal;shape-padding:0;clip-rule:nonzero;display:inline;overflow:visible;visibility:visible;opacity:1;isolation:auto;mix-blend-mode:normal;color-interpolation:sRGB;color-interpolation-filters:linearRGB;solid-color:#000000;solid-opacity:1;vector-effect:none;fill:#ffffff;fill-opacity:1;fill-rule:nonzero;stroke:none;stroke-width:30;stroke-linecap:butt;stroke-linejoin:miter;stroke-miterlimit:4;stroke-dasharray:none;stroke-dashoffset:0;stroke-opacity:1;color-rendering:auto;image-rendering:auto;shape-rendering:auto;text-rendering:auto;enable-background:accumulate"
     d="m 110,0 v 30 h 55 c 8.46196,0 15,6.538045 15,15 0,8.461955 -6.53804,15 -15,15 h -55 v 90 h 30 V 90 h 25 C 189.67515,90 210,69.675129 210,45 210,20.324871 189.67515,0 165,0 Z"
     id="path4"
     inkscape:connector-curvature="0" />
  <path
     style="color:#000000;font-style:normal;font-variant:normal;font-weight:normal;font-stretch:normal;font-size:medium;line-height:normal;font-family:sans-serif;font-variant-ligatures:normal;font-variant-position:normal;font-variant-caps:normal;font-variant-numeric:normal;font-variant-alternates:normal;font-feature-settings:normal;text-indent:0;text-align:start;text-decoration:none;text-decoration-line:none;text-decoration-style:solid;text-decoration-color:#000000;letter-spacing:normal;word-spacing:normal;text-transform:none;writing-mode:lr-tb;direction:ltr;text-orientation:mixed;dominant-baseline:auto;baseline-shift:baseline;text-anchor:start;white-space:normal;shape-padding:0;clip-rule:nonzero;display:inline;overflow:visible;visibility:visible;opacity:1;isolation:auto;mix-blend-mode:normal;color-interpolation:sRGB;color-interpolation-filters:linearRGB;solid-color:#000000;solid-opacity:1;vector-effect:none;fill:#ffffff;fill-opacity:1;fill-rule:nonzero;stroke:none;stroke-width:4;stroke-linecap:butt;stroke-linejoin:miter;stroke-miterlimit:4;stroke-dasharray:none;stroke-dashoffset:0;stroke-opacity:1;color-rendering:auto;image-rendering:auto;shape-rendering:auto;text-rendering:auto;enable-background:accumulate"
     d="m 250,-20 v 190 h 4 V -20 Z"
     id="path6"
     inkscape:connector-curvature="0" />
  <g
     aria-label="Software Engineering"
     style="font-style:normal;font-variant:normal;font-weight:normal;font-stretch:normal;font-size:80px;font-family:Roboto;-inkscape-font-specification:'Roboto, Normal';font-variant-ligatures:normal;font-variant-caps:normal;font-variant-numeric:normal;font-feature-settings:normal;text-align:start;text-transform:none;writing-mode:lr-tb;text-anchor:start;fill:#ffffff"
     id="text8">
    <path
       d="m 317.35937,32.578812 q -9.64843,-2.773438 -14.0625,-6.796875 -4.375,-4.0625 -4.375,-10 0,-6.7187504 5.35157,-11.0937504 5.39062,-4.41406245 13.98437,-4.41406245 5.85938,0 10.42969,2.26562495 4.60937,2.265625 7.10937,6.25 2.53907,3.9843749 2.53907,8.7109379 h -7.53907 q 0,-5.15625 -3.28125,-8.0859379 -3.28125,-2.96875 -9.25781,-2.96875 -5.54687,0 -8.67187,2.4609375 Q 306.5,11.328812 306.5,15.664749 q 0,3.476563 2.92969,5.898438 2.96875,2.382812 10.03906,4.375 7.10937,1.992187 11.09375,4.414062 4.02344,2.382813 5.9375,5.585938 1.95312,3.203125 1.95312,7.539062 0,6.914063 -5.39062,11.09375 -5.39063,4.140625 -14.41406,4.140625 -5.85938,0 -10.9375,-2.226562 -5.07813,-2.265625 -7.85157,-6.171875 -2.73437,-3.90625 -2.73437,-8.867188 h 7.53906 q 0,5.15625 3.78906,8.164063 3.82813,2.96875 10.19532,2.96875 5.9375,0 9.10156,-2.421875 3.16406,-2.421875 3.16406,-6.601563 0,-4.179687 -2.92969,-6.445312 -2.92968,-2.304688 -10.625,-4.53125 z"
       style="font-style:normal;font-variant:normal;font-weight:normal;font-stretch:normal;font-size:80px;font-family:Roboto;-inkscape-font-specification:'Roboto, Normal';font-variant-ligatures:normal;font-variant-caps:normal;font-variant-numeric:normal;font-feature-settings:normal;text-align:start;text-transform:none;writing-mode:lr-tb;text-anchor:start;fill:#ffffff"
       id="path4529"
       inkscape:connector-curvature="0" />
    <path
       d="m 345.05469,36.406937 q 0,-6.210938 2.42187,-11.171875 2.46094,-4.960938 6.79688,-7.65625 4.375,-2.695313 9.96093,-2.695313 8.63282,0 13.94532,5.976563 5.35156,5.976562 5.35156,15.898437 v 0.507813 q 0,6.171875 -2.38281,11.09375 -2.34375,4.882812 -6.75782,7.617187 -4.375,2.734375 -10.07812,2.734375 -8.59375,0 -13.94531,-5.976562 -5.3125,-5.976563 -5.3125,-15.820313 z m 7.26562,0.859375 q 0,7.03125 3.24219,11.289062 3.28125,4.257813 8.75,4.257813 5.50781,0 8.75,-4.296875 3.24219,-4.335938 3.24219,-12.109375 0,-6.953125 -3.32032,-11.25 -3.28125,-4.335938 -8.75,-4.335938 -5.35156,0 -8.63281,4.257813 -3.28125,4.257812 -3.28125,12.1875 z"
       style="font-style:normal;font-variant:normal;font-weight:normal;font-stretch:normal;font-size:80px;font-family:Roboto;-inkscape-font-specification:'Roboto, Normal';font-variant-ligatures:normal;font-variant-caps:normal;font-variant-numeric:normal;font-feature-settings:normal;text-align:start;text-transform:none;writing-mode:lr-tb;text-anchor:start;fill:#ffffff"
       id="path4531"
       inkscape:connector-curvature="0" />
    <path
       d="M 396.14844,57.930374 V 21.250687 h -6.67969 v -5.585938 h 6.67969 v -4.335937 q 0,-6.7968754 3.63281,-10.50781285 3.63281,-3.71093755 10.27344,-3.71093755 2.5,0 4.96093,0.6640625 l -0.39062,5.859375 q -1.83594,-0.3515625 -3.90625,-0.3515625 -3.51563,0 -5.42969,2.0703125 -1.91406,2.03125 -1.91406,5.8593749 v 4.453125 h 9.02344 v 5.585938 H 403.375 v 36.679687 z"
       style="font-style:normal;font-variant:normal;font-weight:normal;font-stretch:normal;font-size:80px;font-family:Roboto;-inkscape-font-specification:'Roboto, Normal';font-variant-ligatures:normal;font-variant-caps:normal;font-variant-numeric:normal;font-feature-settings:normal;text-align:start;text-transform:none;writing-mode:lr-tb;text-anchor:start;fill:#ffffff"
       id="path4533"
       inkscape:connector-curvature="0" />
    <path
       d="M 430.21094,5.4303741 V 15.664749 h 7.89062 v 5.585938 h -7.89062 v 26.210937 q 0,2.539063 1.05468,3.828125 1.05469,1.25 3.59375,1.25 1.25,0 3.4375,-0.46875 v 5.859375 q -2.85156,0.78125 -5.54687,0.78125 -4.84375,0 -7.30469,-2.929687 -2.46094,-2.929688 -2.46094,-8.320313 V 21.250687 h -7.69531 v -5.585938 h 7.69531 V 5.4303741 Z"
       style="font-style:normal;font-variant:normal;font-weight:normal;font-stretch:normal;font-size:80px;font-family:Roboto;-inkscape-font-specification:'Roboto, Normal';font-variant-ligatures:normal;font-variant-caps:normal;font-variant-numeric:normal;font-feature-settings:normal;text-align:start;text-transform:none;writing-mode:lr-tb;text-anchor:start;fill:#ffffff"
       id="path4535"
       inkscape:connector-curvature="0" />
    <path
       d="m 483.92187,47.969437 8.125,-32.304688 h 7.22657 l -12.30469,42.265625 h -5.85938 l -10.27343,-32.03125 -10,32.03125 h -5.85938 L 442.71094,15.664749 h 7.1875 l 8.32031,31.640625 9.84375,-31.640625 h 5.82031 z"
       style="font-style:normal;font-variant:normal;font-weight:normal;font-stretch:normal;font-size:80px;font-family:Roboto;-inkscape-font-specification:'Roboto, Normal';font-variant-ligatures:normal;font-variant-caps:normal;font-variant-numeric:normal;font-feature-settings:normal;text-align:start;text-transform:none;writing-mode:lr-tb;text-anchor:start;fill:#ffffff"
       id="path4537"
       inkscape:connector-curvature="0" />
    <path
       d="m 532.75,57.930374 q -0.625,-1.25 -1.01563,-4.453125 -5.03906,5.234375 -12.03125,5.234375 -6.25,0 -10.27343,-3.515625 -3.98438,-3.554687 -3.98438,-8.984375 0,-6.601562 5,-10.234375 5.03906,-3.671875 14.14063,-3.671875 h 7.03125 v -3.320312 q 0,-3.789063 -2.26563,-6.015625 -2.26562,-2.265625 -6.67969,-2.265625 -3.86718,0 -6.48437,1.953125 -2.61719,1.953125 -2.61719,4.726562 h -7.26562 q 0,-3.164062 2.22656,-6.09375 2.26562,-2.96875 6.09375,-4.6875 3.86719,-1.71875 8.47656,-1.71875 7.30469,0 11.44531,3.671875 4.14063,3.632813 4.29688,10.039063 v 19.453125 q 0,5.820312 1.48437,9.257812 v 0.625 z m -11.99219,-5.507812 q 3.39844,0 6.44531,-1.757813 3.04688,-1.757812 4.41407,-4.570312 v -8.671875 h -5.66407 q -13.28125,0 -13.28125,7.773437 0,3.398438 2.26563,5.3125 2.26562,1.914063 5.82031,1.914063 z"
       style="font-style:normal;font-variant:normal;font-weight:normal;font-stretch:normal;font-size:80px;font-family:Roboto;-inkscape-font-specification:'Roboto, Normal';font-variant-ligatures:normal;font-variant-caps:normal;font-variant-numeric:normal;font-feature-settings:normal;text-align:start;text-transform:none;writing-mode:lr-tb;text-anchor:start;fill:#ffffff"
       id="path4539"
       inkscape:connector-curvature="0" />
    <path
       d="m 570.67969,22.149124 q -1.64063,-0.273437 -3.55469,-0.273437 -7.10938,0 -9.64844,6.054687 v 30 H 550.25 V 15.664749 h 7.03125 l 0.11719,4.882813 q 3.55468,-5.664063 10.07812,-5.664063 2.10938,0 3.20313,0.546875 z"
       style="font-style:normal;font-variant:normal;font-weight:normal;font-stretch:normal;font-size:80px;font-family:Roboto;-inkscape-font-specification:'Roboto, Normal';font-variant-ligatures:normal;font-variant-caps:normal;font-variant-numeric:normal;font-feature-settings:normal;text-align:start;text-transform:none;writing-mode:lr-tb;text-anchor:start;fill:#ffffff"
       id="path4541"
       inkscape:connector-curvature="0" />
    <path
       d="m 594.03906,58.711624 q -8.59375,0 -13.98437,-5.625 -5.39063,-5.664062 -5.39063,-15.117187 v -1.328125 q 0,-6.289063 2.38281,-11.210938 2.42188,-4.960937 6.71875,-7.734375 4.33594,-2.8125 9.375,-2.8125 8.24219,0 12.8125,5.429688 4.57032,5.429687 4.57032,15.546875 v 3.007812 h -28.63282 q 0.15625,6.25 3.63282,10.117188 3.51562,3.828125 8.90625,3.828125 3.82812,0 6.48437,-1.5625 2.65625,-1.5625 4.64844,-4.140625 l 4.41406,3.4375 q -5.3125,8.164062 -15.9375,8.164062 z m -0.89844,-37.890625 q -4.375,0 -7.34375,3.203125 -2.96875,3.164063 -3.67187,8.90625 h 21.17187 v -0.546875 q -0.3125,-5.507812 -2.96875,-8.515625 -2.65625,-3.046875 -7.1875,-3.046875 z"
       style="font-style:normal;font-variant:normal;font-weight:normal;font-stretch:normal;font-size:80px;font-family:Roboto;-inkscape-font-specification:'Roboto, Normal';font-variant-ligatures:normal;font-variant-caps:normal;font-variant-numeric:normal;font-feature-settings:normal;text-align:start;text-transform:none;writing-mode:lr-tb;text-anchor:start;fill:#ffffff"
       id="path4543"
       inkscape:connector-curvature="0" />
    <path
       d="m 671.96875,31.641312 h -24.64844 v 20.15625 h 28.63281 v 6.132812 H 639.82031 V 1.0553741 h 35.74219 v 6.171875 H 647.32031 V 25.508499 h 24.64844 z"
       style="font-style:normal;font-variant:normal;font-weight:normal;font-stretch:normal;font-size:80px;font-family:Roboto;-inkscape-font-specification:'Roboto, Normal';font-variant-ligatures:normal;font-variant-caps:normal;font-variant-numeric:normal;font-feature-settings:normal;text-align:start;text-transform:none;writing-mode:lr-tb;text-anchor:start;fill:#ffffff"
       id="path4545"
       inkscape:connector-curvature="0" />
    <path
       d="m 690.99219,15.664749 0.23437,5.3125 q 4.84375,-6.09375 12.65625,-6.09375 13.39844,0 13.51563,15.117188 v 27.929687 h -7.22657 v -27.96875 q -0.0391,-4.570312 -2.10937,-6.757812 -2.03125,-2.1875 -6.36719,-2.1875 -3.51562,0 -6.17187,1.875 -2.65625,1.875 -4.14063,4.921875 v 30.117187 h -7.22656 V 15.664749 Z"
       style="font-style:normal;font-variant:normal;font-weight:normal;font-stretch:normal;font-size:80px;font-family:Roboto;-inkscape-font-specification:'Roboto, Normal';font-variant-ligatures:normal;font-variant-caps:normal;font-variant-numeric:normal;font-feature-settings:normal;text-align:start;text-transform:none;writing-mode:lr-tb;text-anchor:start;fill:#ffffff"
       id="path4547"
       inkscape:connector-curvature="0" />
    <path
       d="m 726.65625,36.445999 q 0,-9.882812 4.57031,-15.703125 4.57031,-5.859375 12.10938,-5.859375 7.73437,0 12.07031,5.46875 l 0.35156,-4.6875 h 6.60156 v 41.25 q 0,8.203125 -4.88281,12.929688 -4.84375,4.726562 -13.04687,4.726562 -4.57032,0 -8.94532,-1.953125 -4.375,-1.953125 -6.67968,-5.351562 l 3.75,-4.335938 q 4.64843,5.742188 11.36718,5.742188 5.27344,0 8.20313,-2.96875 2.96875,-2.96875 2.96875,-8.359375 v -3.632813 q -4.33594,5 -11.83594,5 -7.42187,0 -12.03125,-5.976562 -4.57031,-5.976563 -4.57031,-16.289063 z m 7.26562,0.820313 q 0,7.148437 2.92969,11.25 2.92969,4.0625 8.20313,4.0625 6.83593,0 10.03906,-6.210938 V 27.070999 q -3.32031,-6.054687 -9.96094,-6.054687 -5.27344,0 -8.24219,4.101562 -2.96875,4.101563 -2.96875,12.148438 z"
       style="font-style:normal;font-variant:normal;font-weight:normal;font-stretch:normal;font-size:80px;font-family:Roboto;-inkscape-font-specification:'Roboto, Normal';font-variant-ligatures:normal;font-variant-caps:normal;font-variant-numeric:normal;font-feature-settings:normal;text-align:start;text-transform:none;writing-mode:lr-tb;text-anchor:start;fill:#ffffff"
       id="path4549"
       inkscape:connector-curvature="0" />
    <path
       d="m 781.07031,57.930374 h -7.22656 V 15.664749 h 7.22656 z m -7.8125,-53.4765624 q 0,-1.7578125 1.05469,-2.96875 1.09375,-1.21093745 3.20312,-1.21093745 2.10938,0 3.20313,1.21093745 1.09375,1.2109375 1.09375,2.96875 0,1.7578125 -1.09375,2.9296875 -1.09375,1.171875 -3.20313,1.171875 -2.10937,0 -3.20312,-1.171875 -1.05469,-1.171875 -1.05469,-2.9296875 z"
       style="font-style:normal;font-variant:normal;font-weight:normal;font-stretch:normal;font-size:80px;font-family:Roboto;-inkscape-font-specification:'Roboto, Normal';font-variant-ligatures:normal;font-variant-caps:normal;font-variant-numeric:normal;font-feature-settings:normal;text-align:start;text-transform:none;writing-mode:lr-tb;text-anchor:start;fill:#ffffff"
       id="path4551"
       inkscape:connector-curvature="0" />
    <path
       d="m 799.42969,15.664749 0.23437,5.3125 q 4.84375,-6.09375 12.65625,-6.09375 13.39844,0 13.51563,15.117188 v 27.929687 h -7.22657 v -27.96875 q -0.0391,-4.570312 -2.10937,-6.757812 -2.03125,-2.1875 -6.36719,-2.1875 -3.51562,0 -6.17187,1.875 -2.65625,1.875 -4.14063,4.921875 v 30.117187 h -7.22656 V 15.664749 Z"
       style="font-style:normal;font-variant:normal;font-weight:normal;font-stretch:normal;font-size:80px;font-family:Roboto;-inkscape-font-specification:'Roboto, Normal';font-variant-ligatures:normal;font-variant-caps:normal;font-variant-numeric:normal;font-feature-settings:normal;text-align:start;text-transform:none;writing-mode:lr-tb;text-anchor:start;fill:#ffffff"
       id="path4553"
       inkscape:connector-curvature="0" />
    <path
       d="m 854.35156,58.711624 q -8.59375,0 -13.98437,-5.625 -5.39063,-5.664062 -5.39063,-15.117187 v -1.328125 q 0,-6.289063 2.38281,-11.210938 2.42188,-4.960937 6.71875,-7.734375 4.33594,-2.8125 9.375,-2.8125 8.24219,0 12.8125,5.429688 4.57032,5.429687 4.57032,15.546875 v 3.007812 h -28.63282 q 0.15625,6.25 3.63282,10.117188 3.51562,3.828125 8.90625,3.828125 3.82812,0 6.48437,-1.5625 2.65625,-1.5625 4.64844,-4.140625 l 4.41406,3.4375 q -5.3125,8.164062 -15.9375,8.164062 z m -0.89844,-37.890625 q -4.375,0 -7.34375,3.203125 -2.96875,3.164063 -3.67187,8.90625 h 21.17187 v -0.546875 q -0.3125,-5.507812 -2.96875,-8.515625 -2.65625,-3.046875 -7.1875,-3.046875 z"
       style="font-style:normal;font-variant:normal;font-weight:normal;font-stretch:normal;font-size:80px;font-family:Roboto;-inkscape-font-specification:'Roboto, Normal';font-variant-ligatures:normal;font-variant-caps:normal;font-variant-numeric:normal;font-feature-settings:normal;text-align:start;text-transform:none;writing-mode:lr-tb;text-anchor:start;fill:#ffffff"
       id="path4555"
       inkscape:connector-curvature="0" />
    <path
       d="m 896.69531,58.711624 q -8.59375,0 -13.98437,-5.625 -5.39063,-5.664062 -5.39063,-15.117187 v -1.328125 q 0,-6.289063 2.38281,-11.210938 2.42188,-4.960937 6.71875,-7.734375 4.33594,-2.8125 9.375,-2.8125 8.24219,0 12.8125,5.429688 4.57032,5.429687 4.57032,15.546875 v 3.007812 h -28.63282 q 0.15625,6.25 3.63282,10.117188 3.51562,3.828125 8.90625,3.828125 3.82812,0 6.48437,-1.5625 2.65625,-1.5625 4.64844,-4.140625 l 4.41406,3.4375 q -5.3125,8.164062 -15.9375,8.164062 z m -0.89844,-37.890625 q -4.375,0 -7.34375,3.203125 -2.96875,3.164063 -3.67187,8.90625 h 21.17187 v -0.546875 q -0.3125,-5.507812 -2.96875,-8.515625 -2.65625,-3.046875 -7.1875,-3.046875 z"
       style="font-style:normal;font-variant:normal;font-weight:normal;font-stretch:normal;font-size:80px;font-family:Roboto;-inkscape-font-specification:'Roboto, Normal';font-variant-ligatures:normal;font-variant-caps:normal;font-variant-numeric:normal;font-feature-settings:normal;text-align:start;text-transform:none;writing-mode:lr-tb;text-anchor:start;fill:#ffffff"
       id="path4557"
       inkscape:connector-curvature="0" />
    <path
       d="m 941.92969,22.149124 q -1.64063,-0.273437 -3.55469,-0.273437 -7.10938,0 -9.64844,6.054687 v 30 H 921.5 V 15.664749 h 7.03125 l 0.11719,4.882813 q 3.55468,-5.664063 10.07812,-5.664063 2.10938,0 3.20313,0.546875 z"
       style="font-style:normal;font-variant:normal;font-weight:normal;font-stretch:normal;font-size:80px;font-family:Roboto;-inkscape-font-specification:'Roboto, Normal';font-variant-ligatures:normal;font-variant-caps:normal;font-variant-numeric:normal;font-feature-settings:normal;text-align:start;text-transform:none;writing-mode:lr-tb;text-anchor:start;fill:#ffffff"
       id="path4559"
       inkscape:connector-curvature="0" />
    <path
       d="m 956.38281,57.930374 h -7.22656 V 15.664749 h 7.22656 z m -7.8125,-53.4765624 q 0,-1.7578125 1.05469,-2.96875 1.09375,-1.21093745 3.20312,-1.21093745 2.10938,0 3.20313,1.21093745 1.09375,1.2109375 1.09375,2.96875 0,1.7578125 -1.09375,2.9296875 -1.09375,1.171875 -3.20313,1.171875 -2.10937,0 -3.20312,-1.171875 -1.05469,-1.171875 -1.05469,-2.9296875 z"
       style="font-style:normal;font-variant:normal;font-weight:normal;font-stretch:normal;font-size:80px;font-family:Roboto;-inkscape-font-specification:'Roboto, Normal';font-variant-ligatures:normal;font-variant-caps:normal;font-variant-numeric:normal;font-feature-settings:normal;text-align:start;text-transform:none;writing-mode:lr-tb;text-anchor:start;fill:#ffffff"
       id="path4561"
       inkscape:connector-curvature="0" />
    <path
       d="m 974.74219,15.664749 0.23437,5.3125 q 4.84375,-6.09375 12.65625,-6.09375 13.39839,0 13.51559,15.117188 v 27.929687 h -7.22653 v -27.96875 q -0.0391,-4.570312 -2.10937,-6.757812 -2.03125,-2.1875 -6.36719,-2.1875 -3.51562,0 -6.17187,1.875 -2.65625,1.875 -4.14063,4.921875 v 30.117187 h -7.22656 V 15.664749 Z"
       style="font-style:normal;font-variant:normal;font-weight:normal;font-stretch:normal;font-size:80px;font-family:Roboto;-inkscape-font-specification:'Roboto, Normal';font-variant-ligatures:normal;font-variant-caps:normal;font-variant-numeric:normal;font-feature-settings:normal;text-align:start;text-transform:none;writing-mode:lr-tb;text-anchor:start;fill:#ffffff"
       id="path4563"
       inkscape:connector-curvature="0" />
    <path
       d="m 1010.4062,36.445999 q 0,-9.882812 4.5704,-15.703125 4.5703,-5.859375 12.1093,-5.859375 7.7344,0 12.0704,5.46875 l 0.3515,-4.6875 h 6.6016 v 41.25 q 0,8.203125 -4.8828,12.929688 -4.8438,4.726562 -13.0469,4.726562 -4.5703,0 -8.9453,-1.953125 -4.375,-1.953125 -6.6797,-5.351562 l 3.75,-4.335938 q 4.6484,5.742188 11.3672,5.742188 5.2734,0 8.2031,-2.96875 2.9688,-2.96875 2.9688,-8.359375 v -3.632813 q -4.336,5 -11.836,5 -7.4219,0 -12.0312,-5.976562 -4.5704,-5.976563 -4.5704,-16.289063 z m 7.2657,0.820313 q 0,7.148437 2.9297,11.25 2.9296,4.0625 8.2031,4.0625 6.8359,0 10.0391,-6.210938 V 27.070999 q -3.3204,-6.054687 -9.961,-6.054687 -5.2734,0 -8.2422,4.101562 -2.9687,4.101563 -2.9687,12.148438 z"
       style="font-style:normal;font-variant:normal;font-weight:normal;font-stretch:normal;font-size:80px;font-family:Roboto;-inkscape-font-specification:'Roboto, Normal';font-variant-ligatures:normal;font-variant-caps:normal;font-variant-numeric:normal;font-feature-settings:normal;text-align:start;text-transform:none;writing-mode:lr-tb;text-anchor:start;fill:#ffffff"
       id="path4565"
       inkscape:connector-curvature="0" />
  </g>
  <g
     aria-label="Programming Languages"
     style="font-style:normal;font-variant:normal;font-weight:normal;font-stretch:normal;font-size:80px;font-family:Roboto;-inkscape-font-specification:'Roboto, Normal';font-variant-ligatures:normal;font-variant-caps:normal;font-variant-numeric:normal;font-feature-settings:normal;text-align:start;text-transform:none;writing-mode:lr-tb;text-anchor:start;fill:#ffffff"
     id="text10">
    <path
       d="M 308.10156,127.73438 V 150 h -7.5 V 93.125 h 20.97656 q 9.33594,0 14.60938,4.765625 5.3125,4.765625 5.3125,12.617185 0,8.28125 -5.19531,12.77344 -5.15625,4.45313 -14.80469,4.45313 z m 0,-6.13282 h 13.47656 q 6.01563,0 9.21875,-2.8125 Q 334,115.9375 334,110.58594 q 0,-5.07813 -3.20313,-8.125 -3.20312,-3.046878 -8.78906,-3.164065 h -13.90625 z"
       style="font-style:normal;font-variant:normal;font-weight:normal;font-stretch:normal;font-size:80px;font-family:Roboto;-inkscape-font-specification:'Roboto, Normal';font-variant-ligatures:normal;font-variant-caps:normal;font-variant-numeric:normal;font-feature-settings:normal;text-align:start;text-transform:none;writing-mode:lr-tb;text-anchor:start;fill:#ffffff"
       id="path4488"
       inkscape:connector-curvature="0" />
    <path
       d="m 370.36719,114.21875 q -1.64063,-0.27344 -3.55469,-0.27344 -7.10938,0 -9.64844,6.05469 v 30 h -7.22656 v -42.26562 h 7.03125 l 0.11719,4.88281 q 3.55468,-5.66406 10.07812,-5.66406 2.10938,0 3.20313,0.54687 z"
       style="font-style:normal;font-variant:normal;font-weight:normal;font-stretch:normal;font-size:80px;font-family:Roboto;-inkscape-font-specification:'Roboto, Normal';font-variant-ligatures:normal;font-variant-caps:normal;font-variant-numeric:normal;font-feature-settings:normal;text-align:start;text-transform:none;writing-mode:lr-tb;text-anchor:start;fill:#ffffff"
       id="path4490"
       inkscape:connector-curvature="0" />
    <path
       d="m 374.27344,128.47656 q 0,-6.21093 2.42187,-11.17187 2.46094,-4.96094 6.79688,-7.65625 4.375,-2.69531 9.96093,-2.69531 8.63282,0 13.94532,5.97656 5.35156,5.97656 5.35156,15.89843 v 0.50782 q 0,6.17187 -2.38281,11.09375 -2.34375,4.88281 -6.75782,7.61718 -4.375,2.73438 -10.07812,2.73438 -8.59375,0 -13.94531,-5.97656 -5.3125,-5.97657 -5.3125,-15.82032 z m 7.26562,0.85938 q 0,7.03125 3.24219,11.28906 3.28125,4.25781 8.75,4.25781 5.50781,0 8.75,-4.29687 3.24219,-4.33594 3.24219,-12.10938 0,-6.95312 -3.32032,-11.25 -3.28125,-4.33593 -8.75,-4.33593 -5.35156,0 -8.63281,4.25781 -3.28125,4.25781 -3.28125,12.1875 z"
       style="font-style:normal;font-variant:normal;font-weight:normal;font-stretch:normal;font-size:80px;font-family:Roboto;-inkscape-font-specification:'Roboto, Normal';font-variant-ligatures:normal;font-variant-caps:normal;font-variant-numeric:normal;font-feature-settings:normal;text-align:start;text-transform:none;writing-mode:lr-tb;text-anchor:start;fill:#ffffff"
       id="path4492"
       inkscape:connector-curvature="0" />
    <path
       d="m 420.09375,128.51562 q 0,-9.88281 4.57031,-15.70312 4.57031,-5.85937 12.10938,-5.85937 7.73437,0 12.07031,5.46875 l 0.35156,-4.6875 h 6.60156 v 41.24999 q 0,8.20313 -4.88281,12.92969 -4.84375,4.72656 -13.04687,4.72656 -4.57032,0 -8.94532,-1.95312 -4.375,-1.95313 -6.67968,-5.35156 l 3.75,-4.33594 q 4.64843,5.74219 11.36718,5.74219 5.27344,0 8.20313,-2.96875 2.96875,-2.96875 2.96875,-8.35938 v -3.63281 q -4.33594,5 -11.83594,5 -7.42187,0 -12.03125,-5.97656 -4.57031,-5.97657 -4.57031,-16.28907 z m 7.26562,0.82032 q 0,7.14843 2.92969,11.25 2.92969,4.0625 8.20313,4.0625 6.83593,0 10.03906,-6.21094 v -19.29687 q -3.32031,-6.05469 -9.96094,-6.05469 -5.27344,0 -8.24219,4.10156 -2.96875,4.10156 -2.96875,12.14844 z"
       style="font-style:normal;font-variant:normal;font-weight:normal;font-stretch:normal;font-size:80px;font-family:Roboto;-inkscape-font-specification:'Roboto, Normal';font-variant-ligatures:normal;font-variant-caps:normal;font-variant-numeric:normal;font-feature-settings:normal;text-align:start;text-transform:none;writing-mode:lr-tb;text-anchor:start;fill:#ffffff"
       id="path4494"
       inkscape:connector-curvature="0" />
    <path
       d="m 487.08594,114.21875 q -1.64063,-0.27344 -3.55469,-0.27344 -7.10938,0 -9.64844,6.05469 v 30 h -7.22656 v -42.26562 h 7.03125 l 0.11719,4.88281 q 3.55468,-5.66406 10.07812,-5.66406 2.10938,0 3.20313,0.54687 z"
       style="font-style:normal;font-variant:normal;font-weight:normal;font-stretch:normal;font-size:80px;font-family:Roboto;-inkscape-font-specification:'Roboto, Normal';font-variant-ligatures:normal;font-variant-caps:normal;font-variant-numeric:normal;font-feature-settings:normal;text-align:start;text-transform:none;writing-mode:lr-tb;text-anchor:start;fill:#ffffff"
       id="path4496"
       inkscape:connector-curvature="0" />
    <path
       d="m 518.21875,150 q -0.625,-1.25 -1.01563,-4.45313 -5.03906,5.23438 -12.03125,5.23438 -6.25,0 -10.27343,-3.51563 -3.98438,-3.55468 -3.98438,-8.98437 0,-6.60156 5,-10.23438 5.03906,-3.67187 14.14063,-3.67187 h 7.03125 v -3.32031 q 0,-3.78906 -2.26563,-6.01563 -2.26562,-2.26562 -6.67969,-2.26562 -3.86718,0 -6.48437,1.95312 -2.61719,1.95313 -2.61719,4.72657 h -7.26562 q 0,-3.16407 2.22656,-6.09375 2.26562,-2.96875 6.09375,-4.6875 3.86719,-1.71875 8.47656,-1.71875 7.30469,0 11.44531,3.67187 4.14063,3.63281 4.29688,10.03906 v 19.45313 q 0,5.82031 1.48437,9.25781 V 150 Z m -11.99219,-5.50781 q 3.39844,0 6.44531,-1.75782 3.04688,-1.75781 4.41407,-4.57031 v -8.67187 h -5.66407 q -13.28125,0 -13.28125,7.77343 0,3.39844 2.26563,5.3125 2.26562,1.91407 5.82031,1.91407 z"
       style="font-style:normal;font-variant:normal;font-weight:normal;font-stretch:normal;font-size:80px;font-family:Roboto;-inkscape-font-specification:'Roboto, Normal';font-variant-ligatures:normal;font-variant-caps:normal;font-variant-numeric:normal;font-feature-settings:normal;text-align:start;text-transform:none;writing-mode:lr-tb;text-anchor:start;fill:#ffffff"
       id="path4498"
       inkscape:connector-curvature="0" />
    <path
       d="m 542.51562,107.73438 0.19532,4.6875 q 4.64843,-5.46875 12.53906,-5.46875 8.86719,0 12.07031,6.79687 2.10938,-3.04687 5.46875,-4.92187 3.39844,-1.875 8.00781,-1.875 13.90625,0 14.14063,14.72656 V 150 h -7.22656 v -27.89062 q 0,-4.53125 -2.07032,-6.75782 -2.07031,-2.26562 -6.95312,-2.26562 -4.02344,0 -6.67969,2.42187 -2.65625,2.38282 -3.08594,6.44532 V 150 h -7.26562 v -27.69531 q 0,-9.21875 -9.02344,-9.21875 -7.10937,0 -9.72656,6.05469 V 150 h -7.22656 v -42.26562 z"
       style="font-style:normal;font-variant:normal;font-weight:normal;font-stretch:normal;font-size:80px;font-family:Roboto;-inkscape-font-specification:'Roboto, Normal';font-variant-ligatures:normal;font-variant-caps:normal;font-variant-numeric:normal;font-feature-settings:normal;text-align:start;text-transform:none;writing-mode:lr-tb;text-anchor:start;fill:#ffffff"
       id="path4500"
       inkscape:connector-curvature="0" />
    <path
       d="m 612.67187,107.73438 0.19532,4.6875 q 4.64843,-5.46875 12.53906,-5.46875 8.86719,0 12.07031,6.79687 2.10938,-3.04687 5.46875,-4.92187 3.39844,-1.875 8.00781,-1.875 13.90625,0 14.14063,14.72656 V 150 h -7.22656 v -27.89062 q 0,-4.53125 -2.07032,-6.75782 -2.07031,-2.26562 -6.95312,-2.26562 -4.02344,0 -6.67969,2.42187 -2.65625,2.38282 -3.08594,6.44532 V 150 h -7.26562 v -27.69531 q 0,-9.21875 -9.02344,-9.21875 -7.10937,0 -9.72656,6.05469 V 150 h -7.22656 v -42.26562 z"
       style="font-style:normal;font-variant:normal;font-weight:normal;font-stretch:normal;font-size:80px;font-family:Roboto;-inkscape-font-specification:'Roboto, Normal';font-variant-ligatures:normal;font-variant-caps:normal;font-variant-numeric:normal;font-feature-settings:normal;text-align:start;text-transform:none;writing-mode:lr-tb;text-anchor:start;fill:#ffffff"
       id="path4502"
       inkscape:connector-curvature="0" />
    <path
       d="m 683.88281,150 h -7.22656 v -42.26562 h 7.22656 z m -7.8125,-53.476563 q 0,-1.757812 1.05469,-2.96875 1.09375,-1.210937 3.20312,-1.210937 2.10938,0 3.20313,1.210937 1.09375,1.210938 1.09375,2.96875 0,1.757813 -1.09375,2.929688 -1.09375,1.171875 -3.20313,1.171875 -2.10937,0 -3.20312,-1.171875 -1.05469,-1.171875 -1.05469,-2.929688 z"
       style="font-style:normal;font-variant:normal;font-weight:normal;font-stretch:normal;font-size:80px;font-family:Roboto;-inkscape-font-specification:'Roboto, Normal';font-variant-ligatures:normal;font-variant-caps:normal;font-variant-numeric:normal;font-feature-settings:normal;text-align:start;text-transform:none;writing-mode:lr-tb;text-anchor:start;fill:#ffffff"
       id="path4504"
       inkscape:connector-curvature="0" />
    <path
       d="m 702.24219,107.73438 0.23437,5.3125 q 4.84375,-6.09375 12.65625,-6.09375 13.39844,0 13.51563,15.11718 V 150 h -7.22657 v -27.96875 q -0.0391,-4.57031 -2.10937,-6.75781 -2.03125,-2.1875 -6.36719,-2.1875 -3.51562,0 -6.17187,1.875 -2.65625,1.875 -4.14063,4.92187 V 150 h -7.22656 v -42.26562 z"
       style="font-style:normal;font-variant:normal;font-weight:normal;font-stretch:normal;font-size:80px;font-family:Roboto;-inkscape-font-specification:'Roboto, Normal';font-variant-ligatures:normal;font-variant-caps:normal;font-variant-numeric:normal;font-feature-settings:normal;text-align:start;text-transform:none;writing-mode:lr-tb;text-anchor:start;fill:#ffffff"
       id="path4506"
       inkscape:connector-curvature="0" />
    <path
       d="m 737.90625,128.51562 q 0,-9.88281 4.57031,-15.70312 4.57031,-5.85937 12.10938,-5.85937 7.73437,0 12.07031,5.46875 l 0.35156,-4.6875 h 6.60156 v 41.24999 q 0,8.20313 -4.88281,12.92969 -4.84375,4.72656 -13.04687,4.72656 -4.57032,0 -8.94532,-1.95312 -4.375,-1.95313 -6.67968,-5.35156 l 3.75,-4.33594 q 4.64843,5.74219 11.36718,5.74219 5.27344,0 8.20313,-2.96875 2.96875,-2.96875 2.96875,-8.35938 v -3.63281 q -4.33594,5 -11.83594,5 -7.42187,0 -12.03125,-5.97656 -4.57031,-5.97657 -4.57031,-16.28907 z m 7.26562,0.82032 q 0,7.14843 2.92969,11.25 2.92969,4.0625 8.20313,4.0625 6.83593,0 10.03906,-6.21094 v -19.29687 q -3.32031,-6.05469 -9.96094,-6.05469 -5.27344,0 -8.24219,4.10156 -2.96875,4.10156 -2.96875,12.14844 z"
       style="font-style:normal;font-variant:normal;font-weight:normal;font-stretch:normal;font-size:80px;font-family:Roboto;-inkscape-font-specification:'Roboto, Normal';font-variant-ligatures:normal;font-variant-caps:normal;font-variant-numeric:normal;font-feature-settings:normal;text-align:start;text-transform:none;writing-mode:lr-tb;text-anchor:start;fill:#ffffff"
       id="path4508"
       inkscape:connector-curvature="0" />
    <path
       d="M 812.98437,143.86719 H 839.9375 V 150 H 805.44531 V 93.125 h 7.53906 z"
       style="font-style:normal;font-variant:normal;font-weight:normal;font-stretch:normal;font-size:80px;font-family:Roboto;-inkscape-font-specification:'Roboto, Normal';font-variant-ligatures:normal;font-variant-caps:normal;font-variant-numeric:normal;font-feature-settings:normal;text-align:start;text-transform:none;writing-mode:lr-tb;text-anchor:start;fill:#ffffff"
       id="path4510"
       inkscape:connector-curvature="0" />
    <path
       d="m 873.53125,150 q -0.625,-1.25 -1.01563,-4.45313 -5.03906,5.23438 -12.03125,5.23438 -6.25,0 -10.27343,-3.51563 -3.98438,-3.55468 -3.98438,-8.98437 0,-6.60156 5,-10.23438 5.03906,-3.67187 14.14063,-3.67187 h 7.03125 v -3.32031 q 0,-3.78906 -2.26563,-6.01563 -2.26562,-2.26562 -6.67969,-2.26562 -3.86718,0 -6.48437,1.95312 -2.61719,1.95313 -2.61719,4.72657 h -7.26562 q 0,-3.16407 2.22656,-6.09375 2.26562,-2.96875 6.09375,-4.6875 3.86719,-1.71875 8.47656,-1.71875 7.30469,0 11.44531,3.67187 4.14063,3.63281 4.29688,10.03906 v 19.45313 q 0,5.82031 1.48437,9.25781 V 150 Z m -11.99219,-5.50781 q 3.39844,0 6.44531,-1.75782 3.04688,-1.75781 4.41407,-4.57031 v -8.67187 h -5.66407 q -13.28125,0 -13.28125,7.77343 0,3.39844 2.26563,5.3125 2.26562,1.91407 5.82031,1.91407 z"
       style="font-style:normal;font-variant:normal;font-weight:normal;font-stretch:normal;font-size:80px;font-family:Roboto;-inkscape-font-specification:'Roboto, Normal';font-variant-ligatures:normal;font-variant-caps:normal;font-variant-numeric:normal;font-feature-settings:normal;text-align:start;text-transform:none;writing-mode:lr-tb;text-anchor:start;fill:#ffffff"
       id="path4512"
       inkscape:connector-curvature="0" />
    <path
       d="m 897.86719,107.73438 0.23437,5.3125 q 4.84375,-6.09375 12.65625,-6.09375 13.39844,0 13.51563,15.11718 V 150 h -7.22657 v -27.96875 q -0.0391,-4.57031 -2.10937,-6.75781 -2.03125,-2.1875 -6.36719,-2.1875 -3.51562,0 -6.17187,1.875 -2.65625,1.875 -4.14063,4.92187 V 150 h -7.22656 v -42.26562 z"
       style="font-style:normal;font-variant:normal;font-weight:normal;font-stretch:normal;font-size:80px;font-family:Roboto;-inkscape-font-specification:'Roboto, Normal';font-variant-ligatures:normal;font-variant-caps:normal;font-variant-numeric:normal;font-feature-settings:normal;text-align:start;text-transform:none;writing-mode:lr-tb;text-anchor:start;fill:#ffffff"
       id="path4514"
       inkscape:connector-curvature="0" />
    <path
       d="m 933.53125,128.51562 q 0,-9.88281 4.57031,-15.70312 4.57031,-5.85937 12.10938,-5.85937 7.73437,0 12.07031,5.46875 l 0.35156,-4.6875 h 6.60156 v 41.24999 q 0,8.20313 -4.88281,12.92969 -4.84375,4.72656 -13.04687,4.72656 -4.57032,0 -8.94532,-1.95312 -4.375,-1.95313 -6.67968,-5.35156 l 3.75,-4.33594 q 4.64843,5.74219 11.36718,5.74219 5.27344,0 8.20313,-2.96875 2.96875,-2.96875 2.96875,-8.35938 v -3.63281 q -4.33594,5 -11.83594,5 -7.42187,0 -12.03125,-5.97656 -4.57031,-5.97657 -4.57031,-16.28907 z m 7.26562,0.82032 q 0,7.14843 2.92969,11.25 2.92969,4.0625 8.20313,4.0625 6.83593,0 10.03906,-6.21094 v -19.29687 q -3.32031,-6.05469 -9.96094,-6.05469 -5.27344,0 -8.24219,4.10156 -2.96875,4.10156 -2.96875,12.14844 z"
       style="font-style:normal;font-variant:normal;font-weight:normal;font-stretch:normal;font-size:80px;font-family:Roboto;-inkscape-font-specification:'Roboto, Normal';font-variant-ligatures:normal;font-variant-caps:normal;font-variant-numeric:normal;font-feature-settings:normal;text-align:start;text-transform:none;writing-mode:lr-tb;text-anchor:start;fill:#ffffff"
       id="path4516"
       inkscape:connector-curvature="0" />
    <path
       d="m 1006.1875,145.82031 q -4.2188,4.96094 -12.38281,4.96094 -6.75782,0 -10.3125,-3.90625 -3.51563,-3.94531 -3.55469,-11.64063 v -27.49999 h 7.22656 v 27.30468 q 0,9.60938 7.8125,9.60938 8.28124,0 11.01564,-6.17188 v -30.74218 h 7.2265 V 150 h -6.875 z"
       style="font-style:normal;font-variant:normal;font-weight:normal;font-stretch:normal;font-size:80px;font-family:Roboto;-inkscape-font-specification:'Roboto, Normal';font-variant-ligatures:normal;font-variant-caps:normal;font-variant-numeric:normal;font-feature-settings:normal;text-align:start;text-transform:none;writing-mode:lr-tb;text-anchor:start;fill:#ffffff"
       id="path4518"
       inkscape:connector-curvature="0" />
    <path
       d="m 1050.25,150 q -0.625,-1.25 -1.0156,-4.45313 -5.0391,5.23438 -12.0313,5.23438 -6.25,0 -10.2734,-3.51563 -3.9844,-3.55468 -3.9844,-8.98437 0,-6.60156 5,-10.23438 5.0391,-3.67187 14.1406,-3.67187 h 7.0313 v -3.32031 q 0,-3.78906 -2.2656,-6.01563 -2.2657,-2.26562 -6.6797,-2.26562 -3.8672,0 -6.4844,1.95312 -2.6172,1.95313 -2.6172,4.72657 h -7.2656 q 0,-3.16407 2.2266,-6.09375 2.2656,-2.96875 6.0937,-4.6875 3.8672,-1.71875 8.4766,-1.71875 7.3047,0 11.4453,3.67187 4.1406,3.63281 4.2969,10.03906 v 19.45313 q 0,5.82031 1.4843,9.25781 V 150 Z m -11.9922,-5.50781 q 3.3985,0 6.4453,-1.75782 3.0469,-1.75781 4.4141,-4.57031 v -8.67187 h -5.6641 q -13.2812,0 -13.2812,7.77343 0,3.39844 2.2656,5.3125 2.2656,1.91407 5.8203,1.91407 z"
       style="font-style:normal;font-variant:normal;font-weight:normal;font-stretch:normal;font-size:80px;font-family:Roboto;-inkscape-font-specification:'Roboto, Normal';font-variant-ligatures:normal;font-variant-caps:normal;font-variant-numeric:normal;font-feature-settings:normal;text-align:start;text-transform:none;writing-mode:lr-tb;text-anchor:start;fill:#ffffff"
       id="path4520"
       inkscape:connector-curvature="0" />
    <path
       d="m 1066.0313,128.51562 q 0,-9.88281 4.5703,-15.70312 4.5703,-5.85937 12.1093,-5.85937 7.7344,0 12.0704,5.46875 l 0.3515,-4.6875 h 6.6016 v 41.24999 q 0,8.20313 -4.8828,12.92969 -4.8438,4.72656 -13.0469,4.72656 -4.5703,0 -8.9453,-1.95312 -4.375,-1.95313 -6.6797,-5.35156 l 3.75,-4.33594 q 4.6484,5.74219 11.3672,5.74219 5.2734,0 8.2031,-2.96875 2.9688,-2.96875 2.9688,-8.35938 v -3.63281 q -4.336,5 -11.836,5 -7.4219,0 -12.0312,-5.97656 -4.5703,-5.97657 -4.5703,-16.28907 z m 7.2656,0.82032 q 0,7.14843 2.9297,11.25 2.9297,4.0625 8.2031,4.0625 6.8359,0 10.0391,-6.21094 v -19.29687 q -3.3204,-6.05469 -9.961,-6.05469 -5.2734,0 -8.2422,4.10156 -2.9687,4.10156 -2.9687,12.14844 z"
       style="font-style:normal;font-variant:normal;font-weight:normal;font-stretch:normal;font-size:80px;font-family:Roboto;-inkscape-font-specification:'Roboto, Normal';font-variant-ligatures:normal;font-variant-caps:normal;font-variant-numeric:normal;font-feature-settings:normal;text-align:start;text-transform:none;writing-mode:lr-tb;text-anchor:start;fill:#ffffff"
       id="path4522"
       inkscape:connector-curvature="0" />
    <path
       d="m 1130.1328,150.78125 q -8.5937,0 -13.9844,-5.625 -5.3906,-5.66406 -5.3906,-15.11719 v -1.32812 q 0,-6.28906 2.3828,-11.21094 2.4219,-4.96094 6.7188,-7.73437 4.3359,-2.8125 9.375,-2.8125 8.2422,0 12.8125,5.42968 4.5703,5.42969 4.5703,15.54688 v 3.00781 h -28.6328 q 0.1562,6.25 3.6328,10.11719 3.5156,3.82812 8.9062,3.82812 3.8282,0 6.4844,-1.5625 2.6563,-1.5625 4.6485,-4.14062 l 4.414,3.4375 q -5.3125,8.16406 -15.9375,8.16406 z m -0.8984,-37.89062 q -4.375,0 -7.3438,3.20312 -2.9687,3.16406 -3.6718,8.90625 h 21.1718 v -0.54687 q -0.3125,-5.50782 -2.9687,-8.51563 -2.6563,-3.04687 -7.1875,-3.04687 z"
       style="font-style:normal;font-variant:normal;font-weight:normal;font-stretch:normal;font-size:80px;font-family:Roboto;-inkscape-font-specification:'Roboto, Normal';font-variant-ligatures:normal;font-variant-caps:normal;font-variant-numeric:normal;font-feature-settings:normal;text-align:start;text-transform:none;writing-mode:lr-tb;text-anchor:start;fill:#ffffff"
       id="path4524"
       inkscape:connector-curvature="0" />
    <path
       d="m 1179.5469,138.78906 q 0,-2.92969 -2.2266,-4.53125 -2.1875,-1.64062 -7.6953,-2.8125 -5.4687,-1.17187 -8.7109,-2.8125 -3.2032,-1.64062 -4.7657,-3.90625 -1.5234,-2.26562 -1.5234,-5.39062 0,-5.19531 4.375,-8.78906 4.4141,-3.59375 11.25,-3.59375 7.1875,0 11.6406,3.71093 4.4922,3.71094 4.4922,9.49219 h -7.2656 q 0,-2.96875 -2.5391,-5.11719 -2.5,-2.14843 -6.3281,-2.14843 -3.9453,0 -6.1719,1.71875 -2.2265,1.71875 -2.2265,4.49218 0,2.61719 2.0703,3.94532 2.0703,1.32812 7.4609,2.53906 5.4297,1.21094 8.7891,2.89062 3.3594,1.67969 4.9609,4.0625 1.6406,2.34375 1.6406,5.74219 0,5.66406 -4.5312,9.10156 -4.5313,3.39844 -11.7578,3.39844 -5.0781,0 -8.9844,-1.79688 -3.9062,-1.79687 -6.1328,-5 -2.1875,-3.24218 -2.1875,-6.99218 h 7.2266 q 0.1953,3.63281 2.8906,5.78125 2.7344,2.10937 7.1875,2.10937 4.1015,0 6.5625,-1.64062 2.5,-1.67969 2.5,-4.45313 z"
       style="font-style:normal;font-variant:normal;font-weight:normal;font-stretch:normal;font-size:80px;font-family:Roboto;-inkscape-font-specification:'Roboto, Normal';font-variant-ligatures:normal;font-variant-caps:normal;font-variant-numeric:normal;font-feature-settings:normal;text-align:start;text-transform:none;writing-mode:lr-tb;text-anchor:start;fill:#ffffff"
       id="path4526"
       inkscape:connector-curvature="0" />
  </g>
</svg>
